<?xml version="1.0" encoding="UTF-8" standalone="no"?>
<!-- Created with Inkscape (http://www.inkscape.org/) -->

<svg
   width="80mm"
   height="90mm"
   viewBox="0 0 80 90"
   version="1.1"
   id="svg1"
   xml:space="preserve"
   inkscape:version="1.4.2 (ebf0e940d0, 2025-05-08)"
   sodipodi:docname="logo.svg"
   xmlns:inkscape="http://www.inkscape.org/namespaces/inkscape"
   xmlns:sodipodi="http://sodipodi.sourceforge.net/DTD/sodipodi-0.dtd"
   xmlns="http://www.w3.org/2000/svg"
   xmlns:svg="http://www.w3.org/2000/svg"><sodipodi:namedview
     id="namedview1"
     pagecolor="#505050"
     bordercolor="#ffffff"
     borderopacity="1"
     inkscape:showpageshadow="0"
     inkscape:pageopacity="0"
     inkscape:pagecheckerboard="1"
     inkscape:deskcolor="#505050"
     inkscape:document-units="mm"
     inkscape:zoom="1.0847363"
     inkscape:cx="106.47749"
     inkscape:cy="223.09569"
     inkscape:window-width="1904"
     inkscape:window-height="1040"
     inkscape:window-x="0"
     inkscape:window-y="0"
     inkscape:window-maximized="1"
     inkscape:current-layer="svg1" /><defs
     id="defs1" /><rect
     style="fill:#ffffff;fill-opacity:1;fill-rule:evenodd;stroke:none;stroke-width:6.42663;stroke-linecap:round;stroke-linejoin:round;stroke-miterlimit:5;paint-order:markers stroke fill"
     id="rect1"
     width="77.034988"
     height="87.065849"
     x="1.5753134"
     y="1.4153411"
     ry="11.215042"
     rx="37.116585"
     inkscape:label="Background" /><path
     style="display:inline;fill:#0f2d59;fill-opacity:1;stroke-width:2.14221"
     d="M 34.169643,89.872549 C 16.600299,89.122507 3.1720918,85.123112 0.53396648,79.854694 -0.22038111,78.348234 -0.15531266,11.377149 0.60187841,9.9532174 7.694602,-3.384835 73.105154,-3.2888118 79.426872,10.068983 c 0.736361,1.555941 0.776751,68.318884 0.04221,69.785774 C 76.183345,86.416482 56.285764,90.816791 34.16963,89.872613 Z M 45.130161,87.539915 C 61.844007,86.849013 75.260061,83.197958 77.294442,78.786692 78.347895,76.502432 77.689439,60.245586 76.574011,60.9997 62.707296,70.374602 17.460085,70.363707 3.4155501,60.982645 2.3065452,60.241855 1.6643567,76.549249 2.7144042,78.787246 5.3015644,84.30133 25.024738,88.371547 45.130161,87.54047 Z M 47.435118,65.512363 C 62.864462,64.589142 75.268621,61.042254 77.250793,56.986746 78.281149,54.878649 77.750694,38.166162 76.678632,38.960293 63.904819,48.422669 15.760281,48.390797 3.2221378,38.911685 2.2029768,38.141176 1.7976901,55.185502 2.7907755,57.052559 5.7633052,62.641155 27.279792,66.718409 47.435118,65.512405 Z M 44.73994,43.675044 c 17.145563,-0.674316 30.435665,-4.247554 32.548716,-8.751155 1.050125,-2.238167 0.407829,-18.545562 -0.701146,-17.801532 -13.993208,9.388098 -59.178749,9.388098 -73.1719599,0 -1.0627237,-0.712988 -1.7569341,15.317166 -0.7653103,17.671952 1.8744509,4.451197 15.4827412,8.231556 31.9262572,8.869052 5.307544,0.205733 5.23094,0.205733 10.163443,0.01066 z M 47.213675,21.648621 C 67.971482,20.482678 81.542106,14.907259 76.206127,9.7372084 66.09688,-0.05768773 13.901162,-0.06811298 3.8103627,9.7222847 -3.0851086,16.412802 21.271679,23.105278 47.213675,21.648153 Z"
     id="path1"
     sodipodi:nodetypes="ssssssscssssccsscsssscscssscccsccc"
     inkscape:label="Stack" /><path
     d="m 52.574815,19.095417 c 0.601413,-0.09188 2.021304,-0.2821 3.155313,-0.422511 1.134006,-0.140496 2.111303,-0.304314 2.171769,-0.364202 0.297605,-0.294764 -0.240907,-0.306468 -1.354499,-0.02942 -0.933426,0.232212 -2.046422,0.308238 -4.56276,0.311606 -1.905574,0.0022 -3.374026,0.07803 -3.435435,0.176313 -0.05911,0.09466 -0.447668,0.12152 -0.86564,0.05949 -0.417114,-0.06182 -2.029557,-0.225646 -3.583209,-0.36401 -1.553651,-0.138363 -3.562918,-0.37064 -4.465038,-0.516125 -0.90212,-0.145398 -1.80424,-0.271119 -2.004711,-0.279179 -0.303137,-0.01279 -0.318476,-0.04413 -0.09112,-0.189744 0.192866,-0.12344 -0.07551,-0.17951 -0.911232,-0.190383 -0.97981,-0.01279 -2.350127,-0.284253 -1.73134,-0.34301 0.100242,-0.0085 -0.418265,-0.219911 -1.152221,-0.467516 -3.983042,-1.343813 -5.400783,-3.097621 -3.89663,-4.820346 0.33857,-0.38776 0.184643,-0.400722 -0.513315,-0.04328 -0.628281,0.321797 -0.926779,0.810333 -0.948059,1.551635 -0.0229,0.798204 -0.58076,0.623916 -0.651375,-0.203601 -0.09458,-1.108233 1.548062,-2.341866 4.226974,-3.174436 0.89854,-0.2792645 1.003144,-0.3518149 0.637861,-0.4424016 -0.353181,-0.087628 -0.244803,-0.1513736 0.565426,-0.332483 1.475888,-0.3299837 3.075706,-0.456238 2.733697,-0.2157324 -0.150354,0.1057449 -0.519403,0.1946474 -0.820109,0.1978452 -0.384537,0.00427 -0.471957,0.052446 -0.294667,0.1637341 0.183653,0.1151254 0.08472,0.1942209 -0.364492,0.2910543 -0.339112,0.073126 -0.778333,0.2444071 -0.976049,0.3806388 -0.197708,0.1362317 -0.484753,0.2487346 -0.637862,0.2500146 -0.153108,0.0013 -0.688435,0.204667 -1.189612,0.451889 -1.043071,0.51461 -1.033256,0.512436 1.591287,-0.351751 1.075678,-0.3541819 2.100814,-0.649692 2.278081,-0.6566635 0.277246,-0.01066 0.271346,-0.032619 -0.04219,-0.1556326 -0.324218,-0.1270643 0.917788,-0.3403876 2.095833,-0.3597883 0.150354,-0.00213 1.913588,-0.057137 3.918301,-0.1217346 10.011423,-0.321733 17.486768,2.500397 12.630981,4.768497 -1.465772,0.684656 -2.858879,0.995238 -1.696194,0.378166 6.557808,-3.480499 -9.904549,-6.2311875 -18.344424,-3.065173 -3.052991,1.145242 -3.261038,2.819252 -0.476063,3.830544 0.574408,0.208505 1.009634,0.434918 0.967167,0.50297 -0.129539,0.207653 2.877233,1.093458 3.740072,1.1019 0.445091,0.0043 1.1373,0.137085 1.538243,0.295169 1.785386,0.703502 14.012714,0.50506 18.770413,-0.304656 6.67492,-1.13599 10.47365,-3.526186 8.806454,-5.541074 -0.09908,-0.119816 -0.134015,-0.291651 -0.07764,-0.382004 0.206922,-0.331603 -1.675933,-1.4760784 -2.428399,-1.4760784 -0.220474,0 -0.475907,-0.208505 -0.639586,-0.5219448 -0.298363,-0.5714486 -1.077079,-0.922091 -2.047843,-0.922091 -0.361804,0 -0.657047,-0.104892 -0.714829,-0.2540861 C 61.213175,6.5912771 55.562081,4.8930272 53.00529,4.7471803 52.331417,4.7088052 51.015762,4.5386753 50.08161,4.3693129 46.472129,3.7148033 29.44021,4.0073926 28.625225,4.7379063 28.188699,5.1291837 25.221348,5.6788865 25.111953,5.388749 c -0.031,-0.082293 -0.507406,-0.075258 -1.058703,0.014924 -0.551296,0.090821 -1.412411,0.2033883 -1.913588,0.2502274 -2.08897,0.1952869 -2.432127,0.2388214 -3.469599,0.441101 -0.59761,0.1166179 -1.45561,0.3236519 -1.90667,0.4602887 -0.45106,0.1366578 -1.346899,0.3326269 -1.990754,0.435515 C 14.128787,7.0937784 13.55471,7.2458293 13.496915,7.3288476 13.350673,7.5388449 11.102491,8.2944091 10.658134,8.2828113 10.163471,8.2700196 8.9337654,8.8189336 8.980376,9.0319157 9.0010402,9.126148 8.3266048,9.4289067 7.4816685,9.7044829 6.4259685,10.048794 5.8273835,10.353918 5.5680805,10.679958 4.2780876,12.301926 4.38448,12.242062 4.3771873,11.350009 4.3490539,7.9092505 15.219278,4.3668185 29.976262,3.0076558 37.033503,2.357666 56.234207,2.896581 57.329147,3.7754787 c 0.108982,0.08741 0.847087,0.2454945 1.640218,0.3511327 3.357874,0.4472838 9.156799,1.8708954 9.552025,2.3449991 0.05011,0.060121 0.630332,0.3568677 1.289366,0.6594132 1.582563,0.7265483 4.22474,2.444071 3.985318,2.5906215 -0.119982,0.07334 -0.08604,0.2004039 0.09297,0.3475298 0.29567,0.243021 0.386469,0.729106 0.13619,0.729106 -0.08018,0 -0.24421,-0.09743 -0.364493,-0.216606 -0.170092,-0.168424 -0.218695,-0.105959 -0.218695,0.281396 0,0.273914 0.07635,0.451292 0.169661,0.394177 0.23992,-0.146891 0.381542,0.144334 0.206577,0.424749 -0.112211,0.179937 -0.237257,0.138151 -0.534713,-0.178018 -0.21353,-0.227031 -0.38825,-0.321008 -0.38825,-0.208932 0,0.112142 0.08916,0.258457 0.198118,0.325166 0.10896,0.06673 0.15765,0.274554 0.108185,0.461909 -0.06064,0.229633 0.0056,0.340644 0.203349,0.340644 0.363463,0 -0.869796,1.295928 -1.746424,1.835185 -0.500977,0.308153 -0.561697,0.412789 -0.371371,0.639927 0.230185,0.274703 -0.185806,0.773985 -0.644871,0.773985 -0.09824,0 -0.308098,0.115125 -0.466345,0.25594 -1.428079,1.270345 -8.696836,2.945315 -13.332672,3.072294 -1.445534,0.03966 -3.243327,0.114699 -3.995094,0.166719 -1.366052,0.09487 -1.366211,0.09466 -0.273369,-0.07249 z M 33.833803,9.2347071 c -0.06681,-0.06609 -0.176183,-0.06609 -0.242995,0 -0.06681,0.06609 -0.01205,0.1202421 0.121488,0.1202421 0.13365,0 0.188324,-0.054152 0.121509,-0.1202421 z m 8.626332,9.5729809 c -4.203969,-0.371429 -5.2881,-0.484614 -5.226471,-0.545652 0.135049,-0.133673 5.955458,0.370043 5.955458,0.515485 0,0.07931 -0.02045,0.131328 -0.04557,0.115339 -0.02505,-0.01493 -0.332598,-0.05437 -0.683424,-0.08528 z m 2.642575,-3.85698 c 0.06195,-0.09935 0.476843,-0.180577 0.921988,-0.180577 0.445145,0 0.809353,0.08123 0.809353,0.180577 0,0.09935 -0.414894,0.180576 -0.921988,0.180576 -0.568249,0 -0.878774,-0.06929 -0.809353,-0.180576 z m -4.556163,-0.29873 c -0.200464,-0.042 -0.55237,-0.116191 -0.782001,-0.164799 -0.89413,-0.189531 -0.173148,-0.485488 0.909717,-0.373391 1.295966,0.1341 2.082939,0.670095 0.933219,0.635514 -0.383042,-0.01066 -0.860462,-0.05522 -1.060935,-0.09722 z m 0.941608,-0.182707 c -0.06683,-0.06609 -0.176183,-0.06609 -0.242995,0 -0.06684,0.0663 -0.01205,0.120455 0.121488,0.120455 0.13365,0 0.188324,-0.05415 0.121488,-0.120455 z m -1.03273,-0.150304 c 0,-0.04967 -0.04101,-0.09018 -0.09112,-0.09018 -0.05011,0 -0.09112,0.04051 -0.09112,0.09018 0,0.04967 0.041,0.09018 0.09112,0.09018 0.05011,0 0.09112,-0.04072 0.09112,-0.09018 z M 37.129426,13.20176 c -0.407265,-0.105531 -0.40335,-0.285469 0.01442,-0.659882 0.498129,-0.446494 0.760198,-0.362795 0.760198,0.242787 0,0.536655 -0.101491,0.591297 -0.774549,0.417095 z M 74.38678,11.612155 c -0.114363,-0.248629 -0.133219,-0.452038 -0.04189,-0.452038 0.179305,0 0.456706,0.699152 0.327988,0.826643 -0.04299,0.04264 -0.171728,-0.125998 -0.2861,-0.374605 z m -7.505617,-1.365218 c 0,-0.105105 0.08201,-0.140922 0.182253,-0.07952 0.100243,0.0614 0.182254,0.147318 0.182254,0.191237 0,0.04371 -0.08201,0.07952 -0.182254,0.07952 -0.100242,0 -0.182253,-0.08592 -0.182253,-0.191237 z"
     style="display:inline;fill:#d70751;fill-opacity:1;stroke-width:2.14221"
     id="path1-1"
     inkscape:label="Debian" /></svg>
